<svg width="220" height="24" viewBox="0 0 220 24" fill="none" xmlns="http://www.w3.org/2000/svg">
<g clip-path="url(#clip0_272_31)">
<path d="M43.4331 18.112C42.5477 18.112 41.7637 17.968 41.0811 17.68C40.4091 17.3813 39.8437 16.976 39.3851 16.464C38.9264 15.952 38.5744 15.344 38.3291 14.64C38.0944 13.936 37.9771 13.168 37.9771 12.336C37.9771 11.4933 38.0997 10.72 38.3451 10.016C38.5904 9.30133 38.9424 8.688 39.4011 8.176C39.8704 7.664 40.4411 7.264 41.1131 6.976C41.7957 6.688 42.5744 6.544 43.4491 6.544C44.3237 6.544 45.0971 6.688 45.7691 6.976C46.4517 7.25333 47.0224 7.648 47.4811 8.16C47.9504 8.672 48.3024 9.28533 48.5371 10C48.7824 10.704 48.9051 11.4773 48.9051 12.32C48.9051 13.152 48.7824 13.9253 48.5371 14.64C48.3024 15.344 47.9504 15.952 47.4811 16.464C47.0224 16.976 46.4517 17.3813 45.7691 17.68C45.0864 17.968 44.3077 18.112 43.4331 18.112ZM43.4491 8.208C42.8411 8.208 42.3131 8.32 41.8651 8.544C41.4277 8.768 41.0597 9.06667 40.7611 9.44C40.4624 9.81333 40.2384 10.2507 40.0891 10.752C39.9504 11.2533 39.8811 11.776 39.8811 12.32C39.8811 12.864 39.9504 13.3867 40.0891 13.888C40.2384 14.3787 40.4571 14.816 40.7451 15.2C41.0437 15.584 41.4171 15.888 41.8651 16.112C42.3131 16.336 42.8411 16.448 43.4491 16.448C44.0464 16.448 44.5691 16.3413 45.0171 16.128C45.4651 15.904 45.8331 15.6053 46.1211 15.232C46.4197 14.8587 46.6384 14.4267 46.7771 13.936C46.9264 13.4347 47.0011 12.9013 47.0011 12.336C47.0011 11.7813 46.9264 11.2587 46.7771 10.768C46.6384 10.2667 46.4197 9.82933 46.1211 9.456C45.8331 9.072 45.4651 8.768 45.0171 8.544C44.5797 8.32 44.0571 8.208 43.4491 8.208ZM50.5779 21.28V9.568H52.3059L52.4019 10.768C52.7326 10.32 53.1379 9.984 53.6179 9.76C54.0979 9.536 54.6153 9.424 55.1699 9.424C55.7459 9.424 56.2633 9.53067 56.7219 9.744C57.1806 9.94667 57.5699 10.2347 57.8899 10.608C58.2206 10.9813 58.4659 11.4347 58.6259 11.968C58.7966 12.4907 58.8819 13.088 58.8819 13.76C58.8819 14.3893 58.8019 14.9707 58.6419 15.504C58.4819 16.0373 58.2419 16.5013 57.9219 16.896C57.6126 17.28 57.2233 17.5787 56.7539 17.792C56.2953 18.0053 55.7566 18.112 55.1379 18.112C54.6046 18.112 54.0979 18.032 53.6179 17.872C53.1486 17.7013 52.7433 17.44 52.4019 17.088V21.28H50.5779ZM54.7859 16.528C55.1806 16.528 55.5219 16.4587 55.8099 16.32C56.0979 16.1707 56.3326 15.9733 56.5139 15.728C56.7059 15.4827 56.8446 15.1947 56.9299 14.864C57.0259 14.5333 57.0739 14.176 57.0739 13.792C57.0739 13.408 57.0259 13.0507 56.9299 12.72C56.8446 12.3787 56.7059 12.0853 56.5139 11.84C56.3326 11.5947 56.0926 11.4027 55.7939 11.264C55.5059 11.1253 55.1593 11.056 54.7539 11.056C54.3593 11.056 54.0179 11.1307 53.7299 11.28C53.4419 11.4293 53.1966 11.6267 52.9939 11.872C52.7913 12.1173 52.6366 12.4107 52.5299 12.752C52.4339 13.0827 52.3859 13.424 52.3859 13.776C52.3859 14.5547 52.5886 15.2053 52.9939 15.728C53.3993 16.2507 53.9966 16.5173 54.7859 16.528ZM62.0507 14.4C62.072 14.7093 62.136 14.9973 62.2427 15.264C62.3494 15.5307 62.4934 15.7653 62.6747 15.968C62.8667 16.16 63.096 16.3147 63.3627 16.432C63.64 16.5493 63.96 16.608 64.3227 16.608C64.7067 16.608 65.0587 16.5387 65.3787 16.4C65.6987 16.2613 65.9334 16.0213 66.0827 15.68H67.9547C67.848 16.1067 67.672 16.4747 67.4267 16.784C67.192 17.0933 66.9094 17.3493 66.5787 17.552C66.2587 17.744 65.9014 17.888 65.5067 17.984C65.1227 18.0693 64.712 18.112 64.2747 18.112C63.6027 18.112 63.0107 18.0107 62.4987 17.808C61.9974 17.6053 61.576 17.312 61.2347 16.928C60.8934 16.544 60.6374 16.0907 60.4667 15.568C60.3067 15.0347 60.2267 14.4373 60.2267 13.776C60.2267 13.136 60.3174 12.5547 60.4987 12.032C60.68 11.4987 60.9414 11.04 61.2827 10.656C61.6347 10.272 62.056 9.97333 62.5467 9.76C63.0374 9.536 63.5974 9.424 64.2267 9.424C64.888 9.424 65.4587 9.536 65.9387 9.76C66.4187 9.97333 66.8187 10.2667 67.1387 10.64C67.4694 11.0133 67.7147 11.4507 67.8747 11.952C68.0347 12.4533 68.1147 12.9973 68.1147 13.584C68.1147 13.8613 68.0987 14.1333 68.0667 14.4H62.0507ZM66.3387 13.024C66.3174 12.384 66.1147 11.888 65.7307 11.536C65.3467 11.184 64.8507 11.008 64.2427 11.008C63.9014 11.008 63.6027 11.0613 63.3467 11.168C63.0907 11.2747 62.872 11.4187 62.6907 11.6C62.52 11.7813 62.3814 11.9947 62.2747 12.24C62.168 12.4853 62.0987 12.7467 62.0667 13.024H66.3387ZM69.7654 18V9.568H71.5094L71.6054 10.736C71.9148 10.2987 72.2988 9.97333 72.7574 9.76C73.2268 9.536 73.7228 9.424 74.2454 9.424C74.8428 9.424 75.3441 9.52533 75.7494 9.728C76.1654 9.93067 76.5014 10.208 76.7574 10.56C77.0241 10.912 77.2108 11.328 77.3174 11.808C77.4348 12.288 77.4934 12.8107 77.4934 13.376V18H75.6694V13.648C75.6694 13.2853 75.6428 12.9493 75.5894 12.64C75.5468 12.3307 75.4561 12.0587 75.3174 11.824C75.1788 11.5787 74.9814 11.3867 74.7254 11.248C74.4801 11.1093 74.1601 11.04 73.7654 11.04C73.3921 11.04 73.0508 11.1307 72.7414 11.312C72.4428 11.4933 72.2081 11.728 72.0374 12.016C71.8774 12.304 71.7601 12.624 71.6854 12.976C71.6214 13.328 71.5894 13.664 71.5894 13.984V18H69.7654ZM84.3977 8.208C83.8004 8.21867 83.2884 8.336 82.8617 8.56C82.435 8.784 82.083 9.08267 81.8057 9.456C81.539 9.82933 81.3417 10.2667 81.2137 10.768C81.0857 11.2587 81.0217 11.7813 81.0217 12.336C81.0217 12.8907 81.0857 13.4187 81.2137 13.92C81.3524 14.4107 81.5604 14.848 81.8377 15.232C82.1257 15.6053 82.4884 15.904 82.9257 16.128C83.363 16.3413 83.8804 16.448 84.4777 16.448C85.4484 16.448 86.2004 16.1973 86.7337 15.696C87.2777 15.184 87.5604 14.5227 87.5817 13.712H84.2697V12.144H89.3577C89.3577 12.5493 89.347 12.96 89.3257 13.376C89.315 13.7813 89.2564 14.208 89.1497 14.656C89.0217 15.136 88.835 15.5893 88.5897 16.016C88.3444 16.432 88.0297 16.7947 87.6457 17.104C87.2617 17.4133 86.803 17.6587 86.2697 17.84C85.747 18.0213 85.1444 18.112 84.4617 18.112C83.5764 18.112 82.7977 17.9733 82.1257 17.696C81.4644 17.408 80.9097 17.008 80.4617 16.496C80.0137 15.984 79.6777 15.376 79.4537 14.672C79.2297 13.968 79.1177 13.2 79.1177 12.368C79.1177 11.5253 79.2297 10.7467 79.4537 10.032C79.6777 9.31733 80.0084 8.704 80.4457 8.192C80.8937 7.66933 81.4484 7.264 82.1097 6.976C82.7817 6.688 83.5604 6.544 84.4457 6.544C85.0644 6.544 85.635 6.624 86.1577 6.784C86.691 6.93333 87.1604 7.15733 87.5657 7.456C87.971 7.744 88.307 8.10667 88.5737 8.544C88.8404 8.97067 89.0164 9.46133 89.1017 10.016H87.2297C87.091 9.45067 86.7657 9.008 86.2537 8.688C85.7524 8.368 85.1337 8.208 84.3977 8.208ZM96.4711 16.96C96.1937 17.3547 95.8257 17.648 95.3671 17.84C94.9084 18.0213 94.3964 18.112 93.8311 18.112C93.3831 18.112 92.9724 18.0587 92.5991 17.952C92.2364 17.8453 91.9164 17.6853 91.6391 17.472C91.3617 17.248 91.1431 16.976 90.9831 16.656C90.8231 16.3253 90.7431 15.952 90.7431 15.536C90.7431 15.0773 90.8337 14.688 91.0151 14.368C91.1964 14.0373 91.4417 13.7707 91.7511 13.568C92.0711 13.3653 92.4444 13.216 92.8711 13.12C93.2977 13.0133 93.7457 12.96 94.2151 12.96H96.3751C96.3751 12.3413 96.2364 11.8613 95.9591 11.52C95.6817 11.1787 95.1964 11.0027 94.5031 10.992C94.0977 10.992 93.7457 11.0613 93.4471 11.2C93.1591 11.3387 92.9671 11.568 92.8711 11.888H90.9991C91.0631 11.44 91.2071 11.0613 91.4311 10.752C91.6657 10.4427 91.9431 10.1867 92.2631 9.984C92.5937 9.78133 92.9564 9.63733 93.3511 9.552C93.7564 9.46667 94.1617 9.424 94.5671 9.424C95.0897 9.424 95.5751 9.49333 96.0231 9.632C96.4711 9.77067 96.8604 10.0053 97.1911 10.336C97.5644 10.72 97.8151 11.1787 97.9431 11.712C98.0711 12.2453 98.1351 12.8267 98.1351 13.456V18H96.5511L96.4711 16.96ZM96.3751 14.256H94.6151C94.3057 14.256 93.9964 14.2827 93.6871 14.336C93.3777 14.3787 93.1111 14.4907 92.8871 14.672C92.6737 14.8427 92.5671 15.0933 92.5671 15.424C92.5671 15.8293 92.7111 16.1387 92.9991 16.352C93.2977 16.5547 93.6604 16.656 94.0871 16.656C94.4177 16.656 94.7217 16.6133 94.9991 16.528C95.2871 16.4427 95.5324 16.304 95.7351 16.112C95.9377 15.9093 96.0924 15.6587 96.1991 15.36C96.3164 15.0507 96.3751 14.6827 96.3751 14.256ZM102.622 9.568H105.15V11.152H102.622V14.864C102.622 15.0773 102.632 15.28 102.654 15.472C102.686 15.664 102.739 15.84 102.814 16C102.899 16.1493 103.016 16.272 103.166 16.368C103.315 16.464 103.518 16.512 103.774 16.512C104.222 16.512 104.606 16.3787 104.926 16.112L105.534 17.472C105.256 17.6853 104.936 17.8453 104.574 17.952C104.211 18.048 103.854 18.096 103.502 18.096C102.584 18.096 101.907 17.8667 101.47 17.408C101.032 16.9387 100.814 16.208 100.814 15.216V11.152H99.4856V9.568H100.814V7.168H102.622V9.568ZM108.191 14.4C108.213 14.7093 108.277 14.9973 108.383 15.264C108.49 15.5307 108.634 15.7653 108.815 15.968C109.007 16.16 109.237 16.3147 109.503 16.432C109.781 16.5493 110.101 16.608 110.463 16.608C110.847 16.608 111.199 16.5387 111.519 16.4C111.839 16.2613 112.074 16.0213 112.223 15.68H114.095C113.989 16.1067 113.813 16.4747 113.567 16.784C113.333 17.0933 113.05 17.3493 112.719 17.552C112.399 17.744 112.042 17.888 111.647 17.984C111.263 18.0693 110.853 18.112 110.415 18.112C109.743 18.112 109.151 18.0107 108.639 17.808C108.138 17.6053 107.717 17.312 107.375 16.928C107.034 16.544 106.778 16.0907 106.607 15.568C106.447 15.0347 106.367 14.4373 106.367 13.776C106.367 13.136 106.458 12.5547 106.639 12.032C106.821 11.4987 107.082 11.04 107.423 10.656C107.775 10.272 108.197 9.97333 108.687 9.76C109.178 9.536 109.738 9.424 110.367 9.424C111.029 9.424 111.599 9.536 112.079 9.76C112.559 9.97333 112.959 10.2667 113.279 10.64C113.61 11.0133 113.855 11.4507 114.015 11.952C114.175 12.4533 114.255 12.9973 114.255 13.584C114.255 13.8613 114.239 14.1333 114.207 14.4H108.191ZM112.479 13.024C112.458 12.384 112.255 11.888 111.871 11.536C111.487 11.184 110.991 11.008 110.383 11.008C110.042 11.008 109.743 11.0613 109.487 11.168C109.231 11.2747 109.013 11.4187 108.831 11.6C108.661 11.7813 108.522 11.9947 108.415 12.24C108.309 12.4853 108.239 12.7467 108.207 13.024H112.479ZM125.011 6.688H132.547V7.648H126.051V11.488H128.915C129.47 11.488 129.998 11.5307 130.499 11.616C131 11.6907 131.438 11.8453 131.811 12.08C132.195 12.304 132.499 12.6187 132.723 13.024C132.947 13.4293 133.059 13.9573 133.059 14.608C133.059 15.2587 132.947 15.8027 132.723 16.24C132.499 16.6667 132.195 17.0133 131.811 17.28C131.427 17.536 130.979 17.7227 130.467 17.84C129.966 17.9467 129.427 18 128.851 18H125.011V6.688ZM126.051 17.04H128.659C129.086 17.04 129.502 17.0133 129.907 16.96C130.312 16.896 130.67 16.784 130.979 16.624C131.288 16.4533 131.534 16.2133 131.715 15.904C131.907 15.5947 132.003 15.184 132.003 14.672C132.003 14.16 131.907 13.76 131.715 13.472C131.534 13.1733 131.288 12.9493 130.979 12.8C130.67 12.6507 130.318 12.5547 129.923 12.512C129.539 12.4693 129.144 12.448 128.739 12.448H126.051V17.04ZM140.903 16.784C140.498 17.2747 140.034 17.616 139.511 17.808C138.999 18 138.434 18.096 137.815 18.096C137.442 18.096 137.079 18.0533 136.727 17.968C136.386 17.872 136.077 17.7227 135.799 17.52C135.522 17.3173 135.298 17.0613 135.127 16.752C134.967 16.432 134.887 16.0747 134.887 15.68C134.887 15.2 134.978 14.8 135.159 14.48C135.341 14.16 135.575 13.904 135.863 13.712C136.162 13.52 136.503 13.3867 136.887 13.312C137.271 13.2267 137.671 13.184 138.087 13.184H140.855C140.855 12.8 140.813 12.4373 140.727 12.096C140.653 11.7547 140.525 11.456 140.343 11.2C140.162 10.944 139.922 10.7413 139.623 10.592C139.335 10.4427 138.978 10.368 138.551 10.368C138.349 10.368 138.141 10.384 137.927 10.416C137.725 10.448 137.527 10.5013 137.335 10.576C137.154 10.6507 136.983 10.7573 136.823 10.896C136.674 11.024 136.551 11.184 136.455 11.376H135.303C135.399 11.024 135.559 10.7307 135.783 10.496C136.007 10.2507 136.269 10.0533 136.567 9.904C136.877 9.744 137.202 9.632 137.543 9.568C137.895 9.504 138.242 9.472 138.583 9.472C139.202 9.472 139.725 9.57333 140.151 9.776C140.578 9.97867 140.919 10.2613 141.175 10.624C141.442 10.976 141.629 11.392 141.735 11.872C141.853 12.352 141.911 12.8693 141.911 13.424V18H141.047L140.903 16.784ZM138.631 14.032C138.354 14.032 138.055 14.0427 137.735 14.064C137.426 14.0853 137.138 14.1493 136.871 14.256C136.605 14.352 136.381 14.5067 136.199 14.72C136.029 14.9227 135.943 15.2053 135.943 15.568C135.943 15.856 135.997 16.1013 136.103 16.304C136.221 16.5067 136.37 16.6773 136.551 16.816C136.743 16.9547 136.957 17.056 137.191 17.12C137.437 17.184 137.687 17.216 137.943 17.216C138.359 17.216 138.743 17.1627 139.095 17.056C139.458 16.9493 139.767 16.7893 140.023 16.576C140.29 16.352 140.493 16.08 140.631 15.76C140.781 15.4293 140.855 15.0453 140.855 14.608V14.032H138.631ZM148.927 13.552C149.492 13.7013 149.903 13.9467 150.159 14.288C150.426 14.6293 150.559 15.0827 150.559 15.648C150.559 16.128 150.458 16.528 150.255 16.848C150.052 17.1573 149.791 17.408 149.471 17.6C149.151 17.7813 148.788 17.9093 148.383 17.984C147.978 18.0587 147.578 18.096 147.183 18.096C146.831 18.096 146.458 18.064 146.063 18C145.679 17.9467 145.316 17.8453 144.975 17.696C144.644 17.536 144.362 17.3227 144.127 17.056C143.892 16.7787 143.754 16.4267 143.711 16H144.751C144.815 16.2453 144.938 16.448 145.119 16.608C145.311 16.7573 145.524 16.8747 145.759 16.96C146.004 17.0453 146.255 17.1093 146.511 17.152C146.767 17.184 146.996 17.2 147.199 17.2C147.466 17.2 147.732 17.1787 147.999 17.136C148.276 17.0933 148.527 17.0187 148.751 16.912C148.975 16.7947 149.156 16.6347 149.295 16.432C149.444 16.2293 149.519 15.968 149.519 15.648C149.519 15.328 149.45 15.072 149.311 14.88C149.183 14.688 149.012 14.544 148.799 14.448C148.596 14.3413 148.362 14.272 148.095 14.24C147.828 14.208 147.562 14.192 147.295 14.192H145.791V13.312H146.879C147.124 13.312 147.375 13.296 147.631 13.264C147.887 13.232 148.122 13.1627 148.335 13.056C148.57 12.9387 148.767 12.7733 148.927 12.56C149.098 12.3467 149.183 12.0853 149.183 11.776C149.183 11.5093 149.119 11.2853 148.991 11.104C148.874 10.9227 148.719 10.7787 148.527 10.672C148.335 10.5653 148.122 10.4907 147.887 10.448C147.652 10.3947 147.423 10.368 147.199 10.368C146.996 10.368 146.778 10.384 146.543 10.416C146.319 10.4373 146.106 10.4907 145.903 10.576C145.7 10.6613 145.519 10.7787 145.359 10.928C145.21 11.0773 145.108 11.2693 145.055 11.504H144.015C144.047 11.1093 144.17 10.784 144.383 10.528C144.596 10.2613 144.852 10.0533 145.151 9.904C145.46 9.744 145.791 9.632 146.143 9.568C146.506 9.504 146.852 9.472 147.183 9.472C147.524 9.472 147.871 9.50933 148.223 9.584C148.586 9.648 148.911 9.76533 149.199 9.936C149.487 10.096 149.722 10.32 149.903 10.608C150.095 10.8853 150.191 11.232 150.191 11.648C150.191 12.1067 150.09 12.5013 149.887 12.832C149.684 13.152 149.364 13.392 148.927 13.552ZM158.2 16.784C157.795 17.2747 157.331 17.616 156.808 17.808C156.296 18 155.731 18.096 155.112 18.096C154.739 18.096 154.376 18.0533 154.024 17.968C153.683 17.872 153.374 17.7227 153.096 17.52C152.819 17.3173 152.595 17.0613 152.424 16.752C152.264 16.432 152.184 16.0747 152.184 15.68C152.184 15.2 152.275 14.8 152.456 14.48C152.638 14.16 152.872 13.904 153.16 13.712C153.459 13.52 153.8 13.3867 154.184 13.312C154.568 13.2267 154.968 13.184 155.384 13.184H158.152C158.152 12.8 158.11 12.4373 158.024 12.096C157.95 11.7547 157.822 11.456 157.64 11.2C157.459 10.944 157.219 10.7413 156.92 10.592C156.632 10.4427 156.275 10.368 155.848 10.368C155.646 10.368 155.438 10.384 155.224 10.416C155.022 10.448 154.824 10.5013 154.632 10.576C154.451 10.6507 154.28 10.7573 154.12 10.896C153.971 11.024 153.848 11.184 153.752 11.376H152.6C152.696 11.024 152.856 10.7307 153.08 10.496C153.304 10.2507 153.566 10.0533 153.864 9.904C154.174 9.744 154.499 9.632 154.84 9.568C155.192 9.504 155.539 9.472 155.88 9.472C156.499 9.472 157.022 9.57333 157.448 9.776C157.875 9.97867 158.216 10.2613 158.472 10.624C158.739 10.976 158.926 11.392 159.032 11.872C159.15 12.352 159.208 12.8693 159.208 13.424V18H158.344L158.2 16.784ZM155.928 14.032C155.651 14.032 155.352 14.0427 155.032 14.064C154.723 14.0853 154.435 14.1493 154.168 14.256C153.902 14.352 153.678 14.5067 153.496 14.72C153.326 14.9227 153.24 15.2053 153.24 15.568C153.24 15.856 153.294 16.1013 153.4 16.304C153.518 16.5067 153.667 16.6773 153.848 16.816C154.04 16.9547 154.254 17.056 154.488 17.12C154.734 17.184 154.984 17.216 155.24 17.216C155.656 17.216 156.04 17.1627 156.392 17.056C156.755 16.9493 157.064 16.7893 157.32 16.576C157.587 16.352 157.79 16.08 157.928 15.76C158.078 15.4293 158.152 15.0453 158.152 14.608V14.032H155.928ZM170.536 13.552C171.102 13.7013 171.512 13.9467 171.768 14.288C172.035 14.6293 172.168 15.0827 172.168 15.648C172.168 16.128 172.067 16.528 171.864 16.848C171.662 17.1573 171.4 17.408 171.08 17.6C170.76 17.7813 170.398 17.9093 169.992 17.984C169.587 18.0587 169.187 18.096 168.792 18.096C168.44 18.096 168.067 18.064 167.672 18C167.288 17.9467 166.926 17.8453 166.584 17.696C166.254 17.536 165.971 17.3227 165.736 17.056C165.502 16.7787 165.363 16.4267 165.32 16H166.36C166.424 16.2453 166.547 16.448 166.728 16.608C166.92 16.7573 167.134 16.8747 167.368 16.96C167.614 17.0453 167.864 17.1093 168.12 17.152C168.376 17.184 168.606 17.2 168.808 17.2C169.075 17.2 169.342 17.1787 169.608 17.136C169.886 17.0933 170.136 17.0187 170.36 16.912C170.584 16.7947 170.766 16.6347 170.904 16.432C171.054 16.2293 171.128 15.968 171.128 15.648C171.128 15.328 171.059 15.072 170.92 14.88C170.792 14.688 170.622 14.544 170.408 14.448C170.206 14.3413 169.971 14.272 169.704 14.24C169.438 14.208 169.171 14.192 168.904 14.192H167.4V13.312H168.488C168.734 13.312 168.984 13.296 169.24 13.264C169.496 13.232 169.731 13.1627 169.944 13.056C170.179 12.9387 170.376 12.7733 170.536 12.56C170.707 12.3467 170.792 12.0853 170.792 11.776C170.792 11.5093 170.728 11.2853 170.6 11.104C170.483 10.9227 170.328 10.7787 170.136 10.672C169.944 10.5653 169.731 10.4907 169.496 10.448C169.262 10.3947 169.032 10.368 168.808 10.368C168.606 10.368 168.387 10.384 168.152 10.416C167.928 10.4373 167.715 10.4907 167.512 10.576C167.31 10.6613 167.128 10.7787 166.968 10.928C166.819 11.0773 166.718 11.2693 166.664 11.504H165.624C165.656 11.1093 165.779 10.784 165.992 10.528C166.206 10.2613 166.462 10.0533 166.76 9.904C167.07 9.744 167.4 9.632 167.752 9.568C168.115 9.504 168.462 9.472 168.792 9.472C169.134 9.472 169.48 9.50933 169.832 9.584C170.195 9.648 170.52 9.76533 170.808 9.936C171.096 10.096 171.331 10.32 171.512 10.608C171.704 10.8853 171.8 11.232 171.8 11.648C171.8 12.1067 171.699 12.5013 171.496 12.832C171.294 13.152 170.974 13.392 170.536 13.552ZM174.082 18V9.568H175.138V13.424H179.906V9.568H180.962V18H179.906V14.304H175.138V18H174.082ZM188.997 16.784C188.592 17.2747 188.128 17.616 187.605 17.808C187.093 18 186.528 18.096 185.909 18.096C185.536 18.096 185.173 18.0533 184.821 17.968C184.48 17.872 184.171 17.7227 183.893 17.52C183.616 17.3173 183.392 17.0613 183.221 16.752C183.061 16.432 182.981 16.0747 182.981 15.68C182.981 15.2 183.072 14.8 183.253 14.48C183.435 14.16 183.669 13.904 183.957 13.712C184.256 13.52 184.597 13.3867 184.981 13.312C185.365 13.2267 185.765 13.184 186.181 13.184H188.949C188.949 12.8 188.907 12.4373 188.821 12.096C188.747 11.7547 188.619 11.456 188.437 11.2C188.256 10.944 188.016 10.7413 187.717 10.592C187.429 10.4427 187.072 10.368 186.645 10.368C186.443 10.368 186.235 10.384 186.021 10.416C185.819 10.448 185.621 10.5013 185.429 10.576C185.248 10.6507 185.077 10.7573 184.917 10.896C184.768 11.024 184.645 11.184 184.549 11.376H183.397C183.493 11.024 183.653 10.7307 183.877 10.496C184.101 10.2507 184.363 10.0533 184.661 9.904C184.971 9.744 185.296 9.632 185.637 9.568C185.989 9.504 186.336 9.472 186.677 9.472C187.296 9.472 187.819 9.57333 188.245 9.776C188.672 9.97867 189.013 10.2613 189.269 10.624C189.536 10.976 189.723 11.392 189.829 11.872C189.947 12.352 190.005 12.8693 190.005 13.424V18H189.141L188.997 16.784ZM186.725 14.032C186.448 14.032 186.149 14.0427 185.829 14.064C185.52 14.0853 185.232 14.1493 184.965 14.256C184.699 14.352 184.475 14.5067 184.293 14.72C184.123 14.9227 184.037 15.2053 184.037 15.568C184.037 15.856 184.091 16.1013 184.197 16.304C184.315 16.5067 184.464 16.6773 184.645 16.816C184.837 16.9547 185.051 17.056 185.285 17.12C185.531 17.184 185.781 17.216 186.037 17.216C186.453 17.216 186.837 17.1627 187.189 17.056C187.552 16.9493 187.861 16.7893 188.117 16.576C188.384 16.352 188.587 16.08 188.725 15.76C188.875 15.4293 188.949 15.0453 188.949 14.608V14.032H186.725ZM192.285 18V9.568H193.341V13.424H198.109V9.568H199.165V18H198.109V14.304H193.341V18H192.285ZM202.944 18H201.472V9.568H202.528V16.832L207.152 9.568H208.608V18H207.552V10.8L202.944 18ZM214.494 7.504C214.675 7.504 214.862 7.488 215.054 7.456C215.246 7.424 215.422 7.37067 215.582 7.296C215.742 7.21067 215.875 7.09333 215.982 6.944C216.099 6.79467 216.174 6.59733 216.206 6.352H217.182C217.15 6.72533 217.048 7.04 216.878 7.296C216.718 7.54133 216.51 7.744 216.254 7.904C216.008 8.05333 215.731 8.16 215.422 8.224C215.112 8.288 214.792 8.32 214.462 8.32C214.131 8.32 213.811 8.288 213.502 8.224C213.192 8.16 212.915 8.05333 212.67 7.904C212.435 7.744 212.238 7.54133 212.078 7.296C211.928 7.04 211.838 6.72533 211.806 6.352H212.782C212.814 6.59733 212.883 6.79467 212.99 6.944C213.107 7.09333 213.246 7.21067 213.406 7.296C213.566 7.37067 213.742 7.424 213.934 7.456C214.126 7.488 214.312 7.504 214.494 7.504ZM210.91 18V9.568H211.966V16.832L216.59 9.568H218.046V18H216.99V10.8L212.398 18H210.91Z" fill="black"/>
<path d="M8.11794 0.0653272C6.10329 0.309844 4.1578 1.44016 2.91767 3.08719C2.52119 3.61774 2.34139 3.90839 2.06478 4.48047C1.72363 5.18173 1.59916 5.5831 1.09204 7.58537C0.856918 8.52192 0.501935 9.92443 0.308308 10.6949C-0.101998 12.3189 -0.106608 12.2174 0.317528 12.7894C0.603359 13.177 0.972173 13.6798 2.35522 15.6037C2.84851 16.2819 3.31875 16.9001 3.40634 16.9739L3.56309 17.1123H7.45869C9.91591 17.1123 11.5156 17.0939 11.7969 17.0616C13.0186 16.9278 14.1619 16.3465 15.0655 15.4007C15.5034 14.9393 15.7478 14.5887 16.029 14.0305C16.3471 13.3846 16.2042 13.9059 17.9007 7.19322C18.4032 5.21402 18.4539 4.98796 18.4078 4.8311C18.3802 4.73883 18.1819 4.42972 17.9653 4.13907C17.5181 3.53931 17.5227 3.54393 17.1954 3.0918C15.5034 0.729675 15.0563 0.13453 14.9133 0.0653272C14.7889 0.00535139 14.3555 -0.00387566 11.6862 0.000737867C9.48716 0.00535139 8.46831 0.0238055 8.11794 0.0653272ZM16.4577 2.59354C16.5131 2.64429 16.5592 2.74117 16.5592 2.81038C16.5592 2.87958 16.4577 3.3317 16.3333 3.82074C16.1673 4.46663 16.0751 4.74344 16.0013 4.82187L15.8999 4.9326H14.42C11.5479 4.9326 10.672 5.08023 9.25204 5.7861C7.45408 6.68112 6.0618 8.24972 5.34262 10.192C5.20892 10.5565 4.56811 12.9509 4.30994 14.0674C4.25923 14.2658 4.19468 14.4042 4.10709 14.4918L3.98262 14.621H3.02831C2.08322 14.621 2.07861 14.621 1.96797 14.5057C1.90343 14.4457 1.85272 14.3442 1.85272 14.2796C1.85272 14.215 1.96336 13.7214 2.10166 13.1816C2.23997 12.6418 2.60417 11.2116 2.90845 10.0075C3.21272 8.80334 3.74289 6.69496 4.08865 5.32475C4.43441 3.95914 4.73868 2.80115 4.76173 2.75501C4.78479 2.70888 4.86316 2.63506 4.9277 2.58893C5.04296 2.51511 5.41638 2.5105 10.589 2.48743C13.6317 2.47359 16.1719 2.47359 16.2365 2.48281C16.301 2.49204 16.3978 2.54279 16.4577 2.59354ZM15.1531 7.53001C15.2407 7.60383 15.2775 7.67764 15.2775 7.79298C15.2821 7.92678 14.7105 10.2243 13.8023 13.7813C13.6594 14.3303 13.5856 14.4549 13.3459 14.5564C13.1476 14.6395 7.08987 14.6533 6.90547 14.5703C6.62885 14.4411 6.61502 14.5287 7.47252 11.1055C7.91048 9.37081 8.28852 7.89909 8.31157 7.82989C8.38072 7.65919 8.5513 7.51156 8.73109 7.47004C8.81408 7.45158 10.2663 7.43313 11.9582 7.42851L15.0332 7.4239L15.1531 7.53001Z" fill="url(#paint0_linear_272_31)"/>
<path d="M20.2576 7.77732C20.1931 7.83268 20.1193 8.04029 20.0225 8.41398C19.9487 8.71848 19.7597 9.45664 19.6076 10.0518C19.4555 10.6469 19.1742 11.7588 18.9806 12.52C17.3763 18.8313 17.2933 19.1543 17.2287 19.2834C17.0766 19.5741 17.4869 19.551 11.3047 19.5879C7.0587 19.611 5.65721 19.6295 5.60189 19.671C5.4267 19.8002 5.50968 19.9662 6.21504 20.9443C6.59307 21.4656 6.95267 21.9316 7.01721 21.9824C7.12785 22.0654 7.25233 22.07 9.80636 22.0839C12.826 22.1023 13.8449 22.0608 14.5779 21.8901C17.4546 21.2257 19.6583 19.0897 20.4697 16.1647C20.8477 14.8083 22.0003 10.1256 22.0003 9.94106C22.0003 9.72422 22.0602 9.82111 20.9492 8.27558C20.631 7.83268 20.5066 7.69889 20.4098 7.69889C20.3775 7.69889 20.3083 7.73579 20.2576 7.77732Z" fill="url(#paint1_linear_272_31)"/>
</g>
<defs>
<linearGradient id="paint0_linear_272_31" x1="13.0864" y1="0.587087" x2="9.74269" y2="17.2193" gradientUnits="userSpaceOnUse">
<stop stop-color="#844AFE"/>
<stop offset="1" stop-color="#6930DE"/>
</linearGradient>
<linearGradient id="paint1_linear_272_31" x1="17.2289" y1="8.19277" x2="14.574" y2="22.2413" gradientUnits="userSpaceOnUse">
<stop stop-color="#844AFE"/>
<stop offset="1" stop-color="#6930DE"/>
</linearGradient>
<clipPath id="clip0_272_31">
<rect width="220" height="24" fill="white"/>
</clipPath>
</defs>
</svg>
