<svg width="177" height="24" viewBox="0 0 177 24" fill="none" xmlns="http://www.w3.org/2000/svg">
<path d="M8.11794 0.0663038C6.10329 0.310821 4.1578 1.44113 2.91767 3.08816C2.52119 3.61872 2.34139 3.90937 2.06478 4.48145C1.72363 5.1827 1.59916 5.58408 1.09204 7.58635C0.856918 8.5229 0.501935 9.92541 0.308308 10.6959C-0.101998 12.3198 -0.106608 12.2183 0.317528 12.7904C0.603359 13.1779 0.972173 13.6808 2.35522 15.6047C2.84851 16.2828 3.31875 16.9011 3.40634 16.9749L3.56309 17.1133H7.45869C9.91591 17.1133 11.5156 17.0948 11.7969 17.0625C13.0186 16.9287 14.1619 16.3474 15.0655 15.4017C15.5034 14.9403 15.7478 14.5897 16.029 14.0314C16.3471 13.3856 16.2042 13.9069 17.9007 7.1942C18.4032 5.215 18.4539 4.98894 18.4078 4.83208C18.3802 4.73981 18.1819 4.4307 17.9653 4.14005C17.5181 3.54029 17.5227 3.5449 17.1954 3.09278C15.5034 0.730651 15.0563 0.135507 14.9133 0.0663038C14.7889 0.00632796 14.3555 -0.0028991 11.6862 0.00171443C9.48716 0.00632796 8.46831 0.0247821 8.11794 0.0663038ZM16.4577 2.59452C16.5131 2.64526 16.5592 2.74215 16.5592 2.81135C16.5592 2.88055 16.4577 3.33268 16.3333 3.82171C16.1673 4.46761 16.0751 4.74442 16.0013 4.82285L15.8999 4.93357H14.42C11.5479 4.93357 10.672 5.08121 9.25204 5.78708C7.45408 6.6821 6.0618 8.2507 5.34262 10.193C5.20892 10.5575 4.56811 12.9519 4.30994 14.0684C4.25923 14.2667 4.19468 14.4051 4.10709 14.4928L3.98262 14.622H3.02831C2.08322 14.622 2.07861 14.622 1.96797 14.5066C1.90343 14.4467 1.85272 14.3452 1.85272 14.2806C1.85272 14.216 1.96336 13.7223 2.10166 13.1826C2.23997 12.6428 2.60417 11.2126 2.90845 10.0085C3.21272 8.80432 3.74289 6.69594 4.08865 5.32572C4.43441 3.96012 4.73868 2.80212 4.76173 2.75599C4.78479 2.70985 4.86316 2.63604 4.9277 2.5899C5.04296 2.51609 5.41638 2.51147 10.589 2.4884C13.6317 2.47456 16.1719 2.47456 16.2365 2.48379C16.301 2.49302 16.3978 2.54377 16.4577 2.59452ZM15.1531 7.53099C15.2407 7.6048 15.2775 7.67862 15.2775 7.79396C15.2821 7.92775 14.7105 10.2253 13.8023 13.7823C13.6594 14.3313 13.5856 14.4559 13.3459 14.5574C13.1476 14.6404 7.08987 14.6543 6.90547 14.5712C6.62885 14.442 6.61502 14.5297 7.47252 11.1065C7.91048 9.37179 8.28852 7.90007 8.31157 7.83087C8.38072 7.66017 8.5513 7.51253 8.73109 7.47101C8.81408 7.45256 10.2663 7.4341 11.9582 7.42949L15.0332 7.42488L15.1531 7.53099Z" fill="url(#paint0_linear_272_31)"/>
<path d="M20.2576 7.77829C20.1931 7.83365 20.1193 8.04126 20.0225 8.41496C19.9487 8.71945 19.7597 9.45762 19.6076 10.0528C19.4555 10.6479 19.1742 11.7598 18.9806 12.521C17.3763 18.8323 17.2933 19.1552 17.2287 19.2844C17.0766 19.5751 17.4869 19.552 11.3047 19.5889C7.0587 19.612 5.65721 19.6304 5.60189 19.672C5.4267 19.8011 5.50968 19.9672 6.21504 20.9453C6.59307 21.4666 6.95267 21.9326 7.01721 21.9833C7.12785 22.0664 7.25233 22.071 9.80636 22.0848C12.826 22.1033 13.8449 22.0618 14.5779 21.8911C17.4546 21.2267 19.6583 19.0907 20.4697 16.1657C20.8477 14.8093 22.0003 10.1266 22.0003 9.94204C22.0003 9.7252 22.0602 9.82208 20.9492 8.27655C20.631 7.83365 20.5066 7.69986 20.4098 7.69986C20.3775 7.69986 20.3083 7.73677 20.2576 7.77829Z" fill="url(#paint1_linear_272_31)"/>
<path d="M31.312 6.688H39.264V8.352H33.168V11.184H35.76C36.3787 11.184 36.944 11.2373 37.456 11.344C37.9787 11.44 38.416 11.616 38.768 11.872C39.1307 12.128 39.408 12.4693 39.6 12.896C39.8027 13.312 39.904 13.8293 39.904 14.448C39.904 15.1307 39.776 15.7013 39.52 16.16C39.2747 16.6187 38.944 16.9867 38.528 17.264C38.112 17.5307 37.6373 17.7227 37.104 17.84C36.5707 17.9467 36.016 18 35.44 18H31.312V6.688ZM33.168 16.352H35.312C35.6533 16.352 35.9893 16.336 36.32 16.304C36.6507 16.2613 36.944 16.176 37.2 16.048C37.456 15.92 37.664 15.7333 37.824 15.488C37.984 15.2427 38.064 14.912 38.064 14.496C38.064 14.112 37.9893 13.808 37.84 13.584C37.6907 13.36 37.4933 13.1947 37.248 13.088C37.0133 12.9707 36.7413 12.9013 36.432 12.88C36.1227 12.848 35.808 12.832 35.488 12.832H33.168V16.352ZM47.1351 16.96C46.8578 17.3547 46.4898 17.648 46.0311 17.84C45.5725 18.0213 45.0605 18.112 44.4951 18.112C44.0471 18.112 43.6365 18.0587 43.2631 17.952C42.9005 17.8453 42.5805 17.6853 42.3031 17.472C42.0258 17.248 41.8071 16.976 41.6471 16.656C41.4871 16.3253 41.4071 15.952 41.4071 15.536C41.4071 15.0773 41.4978 14.688 41.6791 14.368C41.8605 14.0373 42.1058 13.7707 42.4151 13.568C42.7351 13.3653 43.1085 13.216 43.5351 13.12C43.9618 13.0133 44.4098 12.96 44.8791 12.96H47.0391C47.0391 12.3413 46.9005 11.8613 46.6231 11.52C46.3458 11.1787 45.8605 11.0027 45.1671 10.992C44.7618 10.992 44.4098 11.0613 44.1111 11.2C43.8231 11.3387 43.6311 11.568 43.5351 11.888H41.6631C41.7271 11.44 41.8711 11.0613 42.0951 10.752C42.3298 10.4427 42.6071 10.1867 42.9271 9.984C43.2578 9.78133 43.6205 9.63733 44.0151 9.552C44.4205 9.46667 44.8258 9.424 45.2311 9.424C45.7538 9.424 46.2391 9.49333 46.6871 9.632C47.1351 9.77067 47.5245 10.0053 47.8551 10.336C48.2285 10.72 48.4791 11.1787 48.6071 11.712C48.7351 12.2453 48.7991 12.8267 48.7991 13.456V18H47.2151L47.1351 16.96ZM47.0391 14.256H45.2791C44.9698 14.256 44.6605 14.2827 44.3511 14.336C44.0418 14.3787 43.7751 14.4907 43.5511 14.672C43.3378 14.8427 43.2311 15.0933 43.2311 15.424C43.2311 15.8293 43.3751 16.1387 43.6631 16.352C43.9618 16.5547 44.3245 16.656 44.7511 16.656C45.0818 16.656 45.3858 16.6133 45.6631 16.528C45.9511 16.4427 46.1965 16.304 46.3991 16.112C46.6018 15.9093 46.7565 15.6587 46.8631 15.36C46.9805 15.0507 47.0391 14.6827 47.0391 14.256ZM56.2936 13.488C56.7416 13.6373 57.0723 13.8827 57.2856 14.224C57.499 14.5547 57.6056 14.928 57.6056 15.344C57.6056 15.3653 57.6056 15.3867 57.6056 15.408C57.6056 15.9413 57.499 16.384 57.2856 16.736C57.0723 17.088 56.7843 17.3707 56.4216 17.584C56.0696 17.7867 55.6856 17.9253 55.2696 18C54.8643 18.0747 54.4483 18.112 54.0216 18.112C53.6056 18.112 53.179 18.0747 52.7416 18C52.315 17.9147 51.9203 17.7707 51.5576 17.568C51.2056 17.3653 50.9123 17.0987 50.6776 16.768C50.443 16.4373 50.3096 16.0213 50.2776 15.52H52.0376C52.0803 15.7333 52.171 15.9093 52.3096 16.048C52.459 16.1867 52.6296 16.2987 52.8216 16.384C53.0136 16.4693 53.2163 16.528 53.4296 16.56C53.643 16.592 53.8403 16.608 54.0216 16.608C54.2136 16.608 54.4216 16.5973 54.6456 16.576C54.8696 16.544 55.067 16.4907 55.2376 16.416C55.419 16.3307 55.5683 16.2187 55.6856 16.08C55.803 15.9307 55.8616 15.7387 55.8616 15.504C55.8616 15.0987 55.707 14.8267 55.3976 14.688C55.099 14.5493 54.7203 14.48 54.2616 14.48H52.8536V13.04H54.1176C54.5123 13.04 54.8483 12.96 55.1256 12.8C55.403 12.64 55.5416 12.3627 55.5416 11.968C55.5416 11.7653 55.4883 11.6 55.3816 11.472C55.2856 11.3333 55.163 11.2267 55.0136 11.152C54.8643 11.0773 54.699 11.0293 54.5176 11.008C54.3363 10.976 54.1763 10.96 54.0376 10.96C53.8563 10.96 53.6696 10.976 53.4776 11.008C53.2856 11.0293 53.1043 11.0773 52.9336 11.152C52.763 11.2267 52.619 11.328 52.5016 11.456C52.3843 11.584 52.315 11.7493 52.2936 11.952H50.5496C50.5923 11.4507 50.7256 11.04 50.9496 10.72C51.1736 10.3893 51.451 10.128 51.7816 9.936C52.1123 9.744 52.475 9.61067 52.8696 9.536C53.275 9.46133 53.675 9.424 54.0696 9.424C54.4643 9.424 54.8483 9.46133 55.2216 9.536C55.6056 9.61067 55.9576 9.74933 56.2776 9.952C56.5976 10.1547 56.843 10.4 57.0136 10.688C57.195 10.9653 57.2856 11.328 57.2856 11.776C57.2856 12.1813 57.1896 12.528 56.9976 12.816C56.8163 13.104 56.5816 13.328 56.2936 13.488ZM64.6664 16.96C64.389 17.3547 64.021 17.648 63.5624 17.84C63.1037 18.0213 62.5917 18.112 62.0264 18.112C61.5784 18.112 61.1677 18.0587 60.7944 17.952C60.4317 17.8453 60.1117 17.6853 59.8344 17.472C59.557 17.248 59.3384 16.976 59.1784 16.656C59.0184 16.3253 58.9384 15.952 58.9384 15.536C58.9384 15.0773 59.029 14.688 59.2104 14.368C59.3917 14.0373 59.637 13.7707 59.9464 13.568C60.2664 13.3653 60.6397 13.216 61.0664 13.12C61.493 13.0133 61.941 12.96 62.4104 12.96H64.5704C64.5704 12.3413 64.4317 11.8613 64.1544 11.52C63.877 11.1787 63.3917 11.0027 62.6984 10.992C62.293 10.992 61.941 11.0613 61.6424 11.2C61.3544 11.3387 61.1624 11.568 61.0664 11.888H59.1944C59.2584 11.44 59.4024 11.0613 59.6264 10.752C59.861 10.4427 60.1384 10.1867 60.4584 9.984C60.789 9.78133 61.1517 9.63733 61.5464 9.552C61.9517 9.46667 62.357 9.424 62.7624 9.424C63.285 9.424 63.7704 9.49333 64.2184 9.632C64.6664 9.77067 65.0557 10.0053 65.3864 10.336C65.7597 10.72 66.0104 11.1787 66.1384 11.712C66.2664 12.2453 66.3304 12.8267 66.3304 13.456V18H64.7464L64.6664 16.96ZM64.5704 14.256H62.8104C62.501 14.256 62.1917 14.2827 61.8824 14.336C61.573 14.3787 61.3064 14.4907 61.0824 14.672C60.869 14.8427 60.7624 15.0933 60.7624 15.424C60.7624 15.8293 60.9064 16.1387 61.1944 16.352C61.493 16.5547 61.8557 16.656 62.2824 16.656C62.613 16.656 62.917 16.6133 63.1944 16.528C63.4824 16.4427 63.7277 16.304 63.9304 16.112C64.133 15.9093 64.2877 15.6587 64.3944 15.36C64.5117 15.0507 64.5704 14.6827 64.5704 14.256ZM77.4974 13.552C78.0627 13.7013 78.4734 13.9467 78.7294 14.288C78.996 14.6293 79.1294 15.0827 79.1294 15.648C79.1294 16.128 79.028 16.528 78.8254 16.848C78.6227 17.1573 78.3614 17.408 78.0414 17.6C77.7214 17.7813 77.3587 17.9093 76.9534 17.984C76.548 18.0587 76.148 18.096 75.7534 18.096C75.4014 18.096 75.028 18.064 74.6334 18C74.2494 17.9467 73.8867 17.8453 73.5454 17.696C73.2147 17.536 72.932 17.3227 72.6974 17.056C72.4627 16.7787 72.324 16.4267 72.2814 16H73.3214C73.3854 16.2453 73.508 16.448 73.6894 16.608C73.8814 16.7573 74.0947 16.8747 74.3294 16.96C74.5747 17.0453 74.8254 17.1093 75.0814 17.152C75.3374 17.184 75.5667 17.2 75.7694 17.2C76.036 17.2 76.3027 17.1787 76.5694 17.136C76.8467 17.0933 77.0974 17.0187 77.3214 16.912C77.5454 16.7947 77.7267 16.6347 77.8654 16.432C78.0147 16.2293 78.0894 15.968 78.0894 15.648C78.0894 15.328 78.02 15.072 77.8814 14.88C77.7534 14.688 77.5827 14.544 77.3694 14.448C77.1667 14.3413 76.932 14.272 76.6654 14.24C76.3987 14.208 76.132 14.192 75.8654 14.192H74.3614V13.312H75.4494C75.6947 13.312 75.9454 13.296 76.2014 13.264C76.4574 13.232 76.692 13.1627 76.9054 13.056C77.14 12.9387 77.3374 12.7733 77.4974 12.56C77.668 12.3467 77.7534 12.0853 77.7534 11.776C77.7534 11.5093 77.6894 11.2853 77.5614 11.104C77.444 10.9227 77.2894 10.7787 77.0974 10.672C76.9054 10.5653 76.692 10.4907 76.4574 10.448C76.2227 10.3947 75.9934 10.368 75.7694 10.368C75.5667 10.368 75.348 10.384 75.1134 10.416C74.8894 10.4373 74.676 10.4907 74.4734 10.576C74.2707 10.6613 74.0894 10.7787 73.9294 10.928C73.78 11.0773 73.6787 11.2693 73.6254 11.504H72.5854C72.6174 11.1093 72.74 10.784 72.9534 10.528C73.1667 10.2613 73.4227 10.0533 73.7214 9.904C74.0307 9.744 74.3614 9.632 74.7134 9.568C75.076 9.504 75.4227 9.472 75.7534 9.472C76.0947 9.472 76.4414 9.50933 76.7934 9.584C77.156 9.648 77.4814 9.76533 77.7694 9.936C78.0574 10.096 78.292 10.32 78.4734 10.608C78.6654 10.8853 78.7614 11.232 78.7614 11.648C78.7614 12.1067 78.66 12.5013 78.4574 12.832C78.2547 13.152 77.9347 13.392 77.4974 13.552ZM81.0426 18V9.568H82.0986V13.424H86.8666V9.568H87.9226V18H86.8666V14.304H82.0986V18H81.0426ZM95.9581 16.784C95.5528 17.2747 95.0888 17.616 94.5661 17.808C94.0541 18 93.4888 18.096 92.8701 18.096C92.4968 18.096 92.1341 18.0533 91.7821 17.968C91.4408 17.872 91.1315 17.7227 90.8541 17.52C90.5768 17.3173 90.3528 17.0613 90.1821 16.752C90.0221 16.432 89.9421 16.0747 89.9421 15.68C89.9421 15.2 90.0328 14.8 90.2141 14.48C90.3955 14.16 90.6301 13.904 90.9181 13.712C91.2168 13.52 91.5581 13.3867 91.9421 13.312C92.3261 13.2267 92.7261 13.184 93.1421 13.184H95.9101C95.9101 12.8 95.8675 12.4373 95.7821 12.096C95.7075 11.7547 95.5795 11.456 95.3981 11.2C95.2168 10.944 94.9768 10.7413 94.6781 10.592C94.3901 10.4427 94.0328 10.368 93.6061 10.368C93.4035 10.368 93.1955 10.384 92.9821 10.416C92.7795 10.448 92.5821 10.5013 92.3901 10.576C92.2088 10.6507 92.0381 10.7573 91.8781 10.896C91.7288 11.024 91.6061 11.184 91.5101 11.376H90.3581C90.4541 11.024 90.6141 10.7307 90.8381 10.496C91.0621 10.2507 91.3235 10.0533 91.6221 9.904C91.9315 9.744 92.2568 9.632 92.5981 9.568C92.9501 9.504 93.2968 9.472 93.6381 9.472C94.2568 9.472 94.7795 9.57333 95.2061 9.776C95.6328 9.97867 95.9741 10.2613 96.2301 10.624C96.4968 10.976 96.6835 11.392 96.7901 11.872C96.9075 12.352 96.9661 12.8693 96.9661 13.424V18H96.1021L95.9581 16.784ZM93.6861 14.032C93.4088 14.032 93.1101 14.0427 92.7901 14.064C92.4808 14.0853 92.1928 14.1493 91.9261 14.256C91.6595 14.352 91.4355 14.5067 91.2541 14.72C91.0835 14.9227 90.9981 15.2053 90.9981 15.568C90.9981 15.856 91.0515 16.1013 91.1581 16.304C91.2755 16.5067 91.4248 16.6773 91.6061 16.816C91.7981 16.9547 92.0115 17.056 92.2461 17.12C92.4915 17.184 92.7421 17.216 92.9981 17.216C93.4141 17.216 93.7981 17.1627 94.1501 17.056C94.5128 16.9493 94.8221 16.7893 95.0781 16.576C95.3448 16.352 95.5475 16.08 95.6861 15.76C95.8355 15.4293 95.9101 15.0453 95.9101 14.608V14.032H93.6861ZM99.2458 18V9.568H100.302V13.424H105.07V9.568H106.126V18H105.07V14.304H100.302V18H99.2458ZM109.905 18H108.433V9.568H109.489V16.832L114.113 9.568H115.569V18H114.513V10.8L109.905 18ZM121.455 7.504C121.636 7.504 121.823 7.488 122.015 7.456C122.207 7.424 122.383 7.37067 122.543 7.296C122.703 7.21067 122.836 7.09333 122.943 6.944C123.06 6.79467 123.135 6.59733 123.167 6.352H124.143C124.111 6.72533 124.009 7.04 123.839 7.296C123.679 7.54133 123.471 7.744 123.215 7.904C122.969 8.05333 122.692 8.16 122.383 8.224C122.073 8.288 121.753 8.32 121.423 8.32C121.092 8.32 120.772 8.288 120.463 8.224C120.153 8.16 119.876 8.05333 119.631 7.904C119.396 7.744 119.199 7.54133 119.039 7.296C118.889 7.04 118.799 6.72533 118.767 6.352H119.743C119.775 6.59733 119.844 6.79467 119.951 6.944C120.068 7.09333 120.207 7.21067 120.367 7.296C120.527 7.37067 120.703 7.424 120.895 7.456C121.087 7.488 121.273 7.504 121.455 7.504ZM117.871 18V9.568H118.927V16.832L123.551 9.568H125.007V18H123.951V10.8L119.359 18H117.871Z" fill="black"/>
<defs>
<linearGradient id="paint0_linear_272_31" x1="13.0864" y1="0.588063" x2="9.74269" y2="17.2202" gradientUnits="userSpaceOnUse">
<stop stop-color="#844AFE"/>
<stop offset="1" stop-color="#6930DE"/>
</linearGradient>
<linearGradient id="paint1_linear_272_31" x1="17.2289" y1="8.19375" x2="14.574" y2="22.2423" gradientUnits="userSpaceOnUse">
<stop stop-color="#844AFE"/>
<stop offset="1" stop-color="#6930DE"/>
</linearGradient>
</defs>
</svg>
